<?xml version="1.0" encoding="UTF-8"?><svg id="Layer_1" xmlns="http://www.w3.org/2000/svg" viewBox="0 0 591.41 165.01"><defs><style>.cls-1{fill:#4e267d;stroke-width:0px;}</style></defs><path class="cls-1" d="m208.72,141.88c-10.39-6.93-22.6-10.62-35.09-10.62h-19.96c24.74-16.53,27.78-57.4-3.27-74.56L47.81,0v79.36l87.6,48.07-2.02,3.83H47s-46.79,0-46.79,0l-.2,1.02,4.66,1.9c3.25,1.32,6.72,2.03,10.22,2.08l16.35.22,24.51,10.01c3.36,1.37,6.96,2.08,10.6,2.08h150.46l.41-1.02-8.48-5.66Z"/><path class="cls-1" d="m246,74.84v8.94h58.51c11.32,0,20.38-7.75,20.38-19.31s-8.46-19.42-19.42-19.42h-50.17l-.02-20.93h69.31l-.06-8.98h-59.7c-10.6,0-19.07,8.46-19.07,19.54s8.22,19.31,19.66,19.31h49.93v20.85h-69.36Z"/><polygon class="cls-1" points="408.91 74.84 343.25 74.84 343.25 53.99 408.91 53.99 408.91 45.05 343.25 45.05 343.25 24.08 408.79 24.08 408.79 15.14 334.07 15.14 334.07 83.76 408.86 83.76 408.91 74.84"/><path class="cls-1" d="m524.02,24.08h57.68v20.97h-57.68v-20.97Zm57.56,50.77h-57.44v-20.85h57.44v20.85Zm-8.46,8.94c10.13,0,17.99-8.94,17.99-19.54,0-5.6-2.26-10.25-6.44-14.54,4.41-5,6.56-10.37,6.56-15.85,0-12.15-10.37-18.71-22.17-18.71h-54.22v68.64h58.27Zm-146.22-59.7h70.07v20.97h-51.36c-5.12.12-8.94,3.46-9.77,8.22-.71,4.77,1.79,9.3,6.67,10.84l64.05,19.9.06-4.77c0-3.81-.83-4.89-4.29-5.96l-62.44-19.3h46.71c11.08,0,20.02-7.75,20.02-19.19s-8.58-19.66-20.02-19.66h-68.88v68.64h9.18V24.08Z"/><path class="cls-1" d="m591.4,128.6c-.01,11.77-8.14,19.94-19.88,19.95-12.59.02-196.54,0-196.54,0-1.46,9.86-9.09,16.44-19.62,16.45-4.1,0-8.19,0-12.29,0v-9.46h22.96v-50.42h9.21c.07,1.16,0,2.19,0,3.2.01,13.04.02,19.56.01,30.73h139.58c-1.64-2.94-2.56-6.44-2.56-10.31v-23.66h9.16v33.97l27.04.03v-34.21h9.5v34.21h24.23v-33.96h9.2s.02,8.28,0,23.48"/><path class="cls-1" d="m343.05,128.6c-.02,11.77-8.15,19.92-19.89,19.93-17.42.02-40.3.03-57.72,0-11.52,0-19.67-8.25-19.67-19.8,0-15.09,0-14.29,0-14.29h9.15v24.63h78.91v-33.96h9.22c.06,1.16.02,8.28,0,23.48"/><rect class="cls-1" x="289.83" y="155.68" width="15.61" height="9.33"/></svg>